# xmcd CD database file
#
# Track frame offsets:
#	150
#	14848
#	30173
#	44054
#	58216
#	76392
#	92926
#	110484
#	128702
#	148497
#	166847
#	186766
#	205310
#	222950
#	249975
#
# Disc length: 4268 seconds
#
# Revision: 0
# Processed by: cddbd v1.5.1PL0 Copyright (c) Steve Scherf et al.
# Submitted via: CDex 1.50
#
DISCID=de10aa0f
DTITLE=Wolfgang Petry - Typisch Wolfgang Petry
DYEAR=2004
DGENRE=Schlager
TTITLE0=Typisch Frau, typisch Mann (Heia)
TTITLE1=Alles viel zu schlapp
TTITLE2=Ich bin, ich will, ich kann
TTITLE3=Echte Freunde
TTITLE4=Regine
TTITLE5=Alles geht einmal vorbei
TTITLE6=Gut so
TTITLE7=Mit dir geh' ich den weg
TTITLE8=Papperlapapp
TTITLE9=Wir sind noch lange nicht im Eimer
TTITLE10=Ich komm' mit allem klar
TTITLE11=Altes Eisen
TTITLE12=Turn, Turn, Turn
TTITLE13=Wenn du weinen musst
TTITLE14=Daten-Video
EXTD=YEAR: 2004
EXTT0=
EXTT1=
EXTT2=
EXTT3=
EXTT4=
EXTT5=
EXTT6=
EXTT7=
EXTT8=
EXTT9=
EXTT10=
EXTT11=
EXTT12=
EXTT13=
EXTT14=
PLAYORDER=
